<?xml version="1.0" standalone="no"?>
<!DOCTYPE svg PUBLIC "-//W3C//DTD SVG 20010904//EN"
 "http://www.w3.org/TR/2001/REC-SVG-20010904/DTD/svg10.dtd">
<svg version="1.0" xmlns="http://www.w3.org/2000/svg"
 width="1670.000000pt" height="400.000000pt" viewBox="0 0 1670.000000 400.000000"
 preserveAspectRatio="xMidYMid meet">

<g transform="translate(0.000000,400.000000) scale(0.100000,-0.100000)"
fill="#00000" stroke="none">
<path d="M1735 3898 c-290 -32 -607 -150 -851 -316 -421 -285 -705 -710 -809
-1212 -33 -158 -44 -412 -25 -581 63 -569 381 -1083 865 -1397 162 -106 388
-203 583 -252 213 -53 -303 -50 7716 -50 6896 0 7431 1 7448 17 23 21 23 65 0
86 -17 16 -541 17 -7338 17 -4405 0 -7379 4 -7470 10 -253 15 -453 67 -677
173 -456 217 -812 642 -945 1127 -56 204 -77 486 -53 687 66 532 366 1008 818
1296 294 188 670 290 1013 274 151 -7 253 -26 386 -71 129 -44 172 -63 269
-120 338 -200 566 -504 665 -886 28 -107 33 -148 37 -285 8 -233 -18 -396 -94
-584 -190 -476 -611 -808 -1123 -886 -329 -51 -707 35 -985 223 -162 110 -164
143 -17 294 75 77 101 98 117 94 11 -3 112 -44 225 -92 113 -47 228 -91 255
-96 75 -15 317 12 381 42 36 17 119 93 316 288 147 146 271 277 276 291 5 14
6 35 1 46 -4 11 -57 69 -118 130 l-111 110 210 210 c224 225 234 241 190 285
-40 40 -54 30 -277 -192 l-213 -213 -215 215 c-118 118 -215 219 -215 225 0 5
93 103 206 216 167 167 207 212 207 234 0 36 -25 58 -63 58 -28 0 -58 -26
-241 -209 l-209 -208 -120 118 c-114 113 -121 118 -152 112 -26 -5 -88 -61
-286 -259 -261 -259 -307 -313 -324 -375 -21 -77 -35 -284 -23 -342 10 -48
157 -423 186 -474 9 -16 -5 -34 -99 -130 -95 -96 -112 -118 -126 -165 -20 -67
-20 -84 -1 -147 42 -142 381 -329 736 -405 154 -33 430 -34 579 -1 405 90 700
272 943 584 292 375 390 883 262 1357 -30 112 -100 281 -152 370 -54 90 -165
235 -237 309 -75 77 -243 204 -351 264 -282 159 -628 225 -970 186z m358
-1406 l477 -477 -242 -242 c-134 -133 -254 -246 -268 -252 -14 -5 -84 -14
-155 -21 l-130 -13 -200 83 c-231 95 -263 111 -288 138 -11 11 -59 119 -109
239 l-90 218 6 120 c11 196 -8 166 268 442 133 134 245 243 248 243 3 0 220
-215 483 -478z"/>
<path d="M4220 2245 l0 -895 755 0 755 0 0 205 0 205 -475 0 -475 0 0 175 0
175 425 0 425 0 0 180 0 180 -425 0 -425 0 0 145 0 145 460 0 460 0 0 190 0
190 -740 0 -740 0 0 -895z"/>
<path d="M6010 2245 l0 -895 248 2 247 3 0 890 0 890 -247 3 -248 2 0 -895z"/>
<path d="M7690 2245 l0 -895 275 0 275 0 0 360 0 360 300 0 300 0 0 -360 0
-360 280 0 280 0 0 895 0 895 -280 0 -280 0 0 -315 0 -315 -297 2 -298 3 -3
313 -2 312 -275 0 -275 0 0 -895z"/>
<path d="M11410 2245 l0 -895 250 0 250 0 0 895 0 895 -250 0 -250 0 0 -895z"/>
<path d="M10265 2669 c-172 -22 -298 -80 -405 -188 -128 -128 -190 -284 -190
-481 0 -204 60 -361 190 -491 85 -86 158 -127 284 -159 154 -39 427 -36 591 6
144 37 272 130 362 264 l43 65 -37 6 c-21 4 -131 15 -245 25 l-206 18 -40 -41
c-54 -55 -113 -76 -200 -71 -55 3 -79 10 -118 34 -55 33 -99 102 -110 172 l-7
42 494 2 494 3 3 55 c5 85 -16 234 -45 322 -81 245 -270 383 -573 418 -99 11
-187 11 -285 -1z m279 -323 c53 -31 89 -87 105 -164 6 -29 11 -57 11 -62 0 -6
-95 -10 -240 -10 -273 0 -252 -9 -224 92 21 72 72 133 134 159 63 27 154 20
214 -15z"/>
<path d="M13010 2666 c-96 -17 -174 -59 -252 -137 l-68 -68 0 94 0 95 -230 0
-230 0 0 -895 0 -895 250 0 250 0 0 305 0 305 47 -36 c164 -125 380 -147 570
-58 123 58 235 202 279 360 21 78 30 328 15 420 -27 158 -94 296 -190 387 -73
69 -160 113 -256 127 -84 12 -101 11 -185 -4z m42 -393 c23 -16 53 -51 67 -79
25 -46 26 -57 26 -194 0 -138 -1 -148 -26 -195 -32 -60 -74 -93 -132 -103 -93
-18 -180 28 -225 118 -25 52 -27 63 -27 185 1 122 2 133 28 182 44 85 109 125
195 120 39 -3 63 -11 94 -34z"/>
<path d="M14400 2665 c-170 -27 -292 -88 -399 -200 -119 -125 -172 -270 -173
-470 0 -312 164 -552 437 -637 100 -31 294 -44 443 -30 228 21 333 63 453 182
41 41 89 98 106 126 l31 52 -46 5 c-26 4 -136 14 -245 23 l-198 18 -42 -41
c-92 -88 -236 -99 -334 -26 -43 32 -81 99 -89 156 l-7 47 494 2 494 3 3 45 c5
71 -17 237 -44 320 -50 158 -157 286 -296 354 -158 77 -378 104 -588 71z m249
-295 c82 -23 132 -82 156 -183 8 -34 15 -65 15 -69 0 -5 -108 -8 -240 -8
l-240 0 0 30 c0 50 38 134 78 173 60 59 149 81 231 57z"/>
<path d="M16234 2662 c-77 -27 -137 -83 -191 -178 l-22 -39 -1 103 0 102 -232
-2 -233 -3 0 -645 0 -645 250 0 250 0 6 335 c6 364 14 424 66 505 53 84 127
109 231 76 l63 -19 33 71 c18 40 52 119 76 176 51 120 53 117 -60 152 -95 30
-174 33 -236 11z"/>
<path d="M6724 2187 c-2 -7 -3 -94 -2 -192 l3 -180 363 -3 362 -2 -2 192 -3
193 -358 3 c-285 2 -359 0 -363 -11z"/>
</g>
</svg>
